#!OML:ASF H:\ManfredETheater\Project 1\Capture day 1\Session 1\subject.ASF
:FULLY-SPECIFIED
:DEGREES
1101
root 1.26298 17.8941 -4.57546 -8.29715 7.34693 -0.422623
lowerback 10.5852 1.16968 2.43949
upperback 0.307484 1.91279 1.00209
thorax -5.57358 0.891209 -0.615746
lowerneck -13.9892 -4.32953 -5.14898
upperneck 24.8191 -5.15909 1.3669
head 10.43 -2.68337 0.677865
rclavicle -9.56651e-015 -1.23246e-014
rhumerus -38.4808 -3.45214 -54.2142
rradius 48.9139
rwrist -0.646936
rhand -10.0075 -12.8809
rfingers 7.12502
rthumb 15.9765 -42.2421
lclavicle -9.56651e-015 -1.23246e-014
lhumerus -43.2527 15.6224 55.4898
lradius 57.4556
lwrist -8.1911
lhand -14.9656 -0.00602823
lfingers 7.12502
lthumb 11.1979 29.6751
rfemur 2.02918 -6.97652 26.836
rtibia 25.5149
rfoot -15.2895 -0.157709
rtoes 24.0428
lfemur -77.0106 2.87817 -2.37064
ltibia 89.6032
lfoot 50.0043 -19.5472
ltoes 19.6543
1102
root 1.26177 17.9109 -4.57423 -8.29817 7.11113 -0.347765
lowerback 10.6076 1.19631 2.30985
upperback 0.302839 1.93182 0.977987
thorax -5.59387 0.903337 -0.571605
lowerneck -14.063 -4.26306 -5.06864
upperneck 24.901 -5.07823 1.34892
head 10.468 -2.64067 0.667031
rclavicle 1.06847e-015 7.95139e-015
rhumerus -38.3611 -3.37708 -54.3226
rradius 48.9987
rwrist -0.720398
rhand -9.93258 -12.8735
rfingers 7.12502
rthumb 16.0486 -42.2289
lclavicle 1.06847e-015 7.95139e-015
lhumerus -43.3506 15.5328 55.3967
lradius 57.4634
lwrist -8.32774
lhand -14.7466 -0.018934
lfingers 7.12502
lthumb 11.4092 29.6507
rfemur 2.28613 -6.90645 26.7407
rtibia 25.0482
rfoot -15.0143 0.0651866
rtoes 23.9682
lfemur -76.7847 2.61904 -1.34226
ltibia 89.2456
lfoot 48.442 -18.821
ltoes 19.6053
1103
root 1.26009 17.9262 -4.57243 -8.30094 6.91678 -0.270961
lowerback 10.6304 1.21411 2.17383
upperback 0.299955 1.93805 0.950983
thorax -5.61296 0.909356 -0.524987
lowerneck -14.1345 -4.20051 -4.99403
upperneck 24.9771 -5.00264 1.33493
head 10.5041 -2.60044 0.657972
rclavicle -3.06625e-014 -1.98785e-014
rhumerus -38.2669 -3.30823 -54.4314
rradius 49.0823
rwrist -0.796186
rhand -9.84007 -12.8597
rfingers 7.12502
rthumb 16.1376 -42.2078
lclavicle -3.06625e-014 -1.98785e-014
lhumerus -43.426 15.4343 55.3218
lradius 57.4717
lwrist -8.44986
lhand -14.5342 -0.0324856
lfingers 7.12502
lthumb 11.614 29.6257
rfemur 2.53016 -6.83431 26.6505
rtibia 24.6134
rfoot -14.7642 0.238572
rtoes 23.894
lfemur -76.5474 2.3447 -0.349336
ltibia 88.7486
lfoot 46.5566 -17.8811
ltoes 19.7827
1104
root 1.25795 17.94 -4.57009 -8.30234 6.76508 -0.189102
lowerback 10.6506 1.22455 2.02941
upperback 0.298144 1.93308 0.920012
thorax -5.6299 0.910098 -0.476016
lowerneck -14.2031 -4.14385 -4.92627
upperneck 25.0465 -4.93499 1.32557
head 10.5379 -2.56395 0.65076
rclavicle -1.62755e-014 -1.47101e-014
rhumerus -38.2037 -3.24546 -54.5382
rradius 49.1682
rwrist -0.872957
rhand -9.73178 -12.8352
rfingers 7.12502
rthumb 16.2419 -42.1749
lclavicle -1.62755e-014 -1.47101e-014
lhumerus -43.4739 15.325 55.2691
lradius 57.4797
lwrist -8.55259
lhand -14.3325 -0.0402944
lfingers 7.12502
lthumb 11.8085 29.6068
rfemur 2.75686 -6.76141 26.5616
rtibia 24.213
rfoot -14.54 0.363105
rtoes 23.8261
lfemur -76.3014 2.05607 0.600403
ltibia 88.1016
lfoot 44.4047 -16.7578
ltoes 20.1961
1105
root 1.25533 17.9528 -4.56726 -8.29997 6.65695 -0.0995489
lowerback 10.6663 1.22897 1.87513
upperback 0.296938 1.9184 0.884081
thorax -5.64399 0.906329 -0.425081
lowerneck -14.2684 -4.09471 -4.86636
upperneck 25.1088 -4.87763 1.32196
head 10.5693 -2.53222 0.645642
rclavicle 2.31584e-014 2.0276e-014
rhumerus -38.1761 -3.18907 -54.6412
rradius 49.2597
rwrist -0.949181
rhand -9.61008 -12.7972
rfingers 7.12502
rthumb 16.3591 -42.1273
lclavicle 2.31584e-014 2.0276e-014
lhumerus -43.4896 15.2043 55.2409
lradius 57.487
lwrist -8.63464
lhand -14.1433 -0.0407006
lfingers 7.12502
lthumb 11.991 29.5958
rfemur 2.96588 -6.68921 26.4707
rtibia 23.8418
rfoot -14.3383 0.441376
rtoes 23.7727
lfemur -76.0492 1.75346 1.50033
ltibia 87.2967
lfoot 42.0472 -15.4892
ltoes 20.824
1106
root 1.2522 17.9649 -4.56404 -8.29243 6.5937 -0.000856149
lowerback 10.6767 1.22823 1.71067
upperback 0.296153 1.89508 0.842517
thorax -5.65486 0.898569 -0.37284
lowerneck -14.331 -4.05447 -4.81489
upperneck 25.164 -4.83258 1.32495
head 10.5986 -2.50611 0.642725
rclavicle 1.75427e-014 -9.93923e-015
rhumerus -38.1875 -3.13988 -54.7385
rradius 49.3588
rwrist -1.02373
rhand -9.47745 -12.7451
rfingers 7.12502
rthumb 16.4868 -42.0646
lclavicle 1.75427e-014 -9.93923e-015
lhumerus -43.4692 15.073 55.2384
lradius 57.4935
lwrist -8.69839
lhand -13.9666 -0.0379123
lfingers 7.12502
lthumb 12.1613 29.5886
rfemur 3.16019 -6.61931 26.3753
rtibia 23.49
rfoot -14.1529 0.476383
rtoes 23.7414
lfemur -75.794 1.4361 2.34556
ltibia 86.3296
lfoot 39.5426 -14.1124
ltoes 21.6117
1107
root 1.24851 17.9768 -4.56055 -8.27998 6.57734 0.106993
lowerback 10.6824 1.22256 1.53731
upperback 0.296088 1.86362 0.794967
thorax -5.66244 0.88702 -0.320456
lowerneck -14.3912 -4.02418 -4.77263
upperneck 25.212 -4.80151 1.3361
head 10.6258 -2.48628 0.642452
rclavicle 3.52843e-014 3.02153e-014
rhumerus -38.24 -3.09943 -54.8289
rradius 49.4665
rwrist -1.09604
rhand -9.3373 -12.6791
rfingers 7.12502
rthumb 16.6217 -41.9873
lclavicle 3.52843e-014 3.02153e-014
lhumerus -43.4095 14.9335 55.2615
lradius 57.4995
lwrist -8.74989
lhand -13.8 -0.0403572
lfingers 7.12502
lthumb 12.3219 29.5766
rfemur 3.3455 -6.55363 26.2742
rtibia 23.1457
rfoot -13.9767 0.471292
rtoes 23.7388
lfemur -75.5385 1.10148 3.13334
ltibia 85.2003
lfoot 36.9465 -12.6592
ltoes 22.4817
1108
root 1.24422 17.9886 -4.55693 -8.26424 6.61001 0.222378
lowerback 10.6858 1.2118 1.35773
upperback 0.297312 1.8242 0.74164
thorax -5.66737 0.871688 -0.269297
lowerneck -14.4494 -4.00464 -4.74002
upperneck 25.2531 -4.78572 1.35656
head 10.6511 -2.4732 0.645111
rclavicle 1.87106e-014 1.43125e-014
rhumerus -38.3338 -3.06953 -54.9111
rradius 49.5828
rwrist -1.16661
rhand -9.19346 -12.601
rfingers 7.12502
rthumb 16.7602 -41.8976
lclavicle 1.87106e-014 1.43125e-014
lhumerus -43.3083 14.7897 55.3092
lradius 57.5057
lwrist -8.79699
lhand -13.6397 -0.0583939
lfingers 7.12502
lthumb 12.4765 29.5492
rfemur 3.52868 -6.49351 26.1682
rtibia 22.7973
rfoot -13.803 0.427757
rtoes 23.7667
lfemur -75.2849 0.746349 3.86378
ltibia 83.9116
lfoot 34.3158 -11.1575
ltoes 23.3457
1109
root 1.23935 18.0006 -4.55328 -8.24787 6.69359 0.341696
lowerback 10.6901 1.19543 1.17628
upperback 0.300625 1.77677 0.68347
thorax -5.67047 0.852433 -0.220885
lowerneck -14.5055 -3.9964 -4.71779
upperneck 25.287 -4.78624 1.38787
head 10.6747 -2.46722 0.65123
rclavicle -8.12532e-015 9.14409e-015
rhumerus -38.468 -3.05203 -54.9842
rradius 49.7062
rwrist -1.23603
rhand -9.05051 -12.5124
rfingers 7.12502
rthumb 16.8978 -41.7973
lclavicle -8.12532e-015 9.14409e-015
lhumerus -43.1646 14.6462 55.3802
lradius 57.5134
lwrist -8.84748
lhand -13.4825 -0.100151
lfingers 7.12502
lthumb 12.628 29.4981
rfemur 3.71665 -6.43968 26.0605
rtibia 22.4359
rfoot -13.6263 0.345905
rtoes 23.8224
lfemur -75.0352 0.367245 4.54049
ltibia 82.4678
lfoot 31.714 -9.63755
ltoes 24.123
1110
root 1.23392 18.0128 -4.54972 -8.23405 6.82945 0.460586
lowerback 10.6988 1.1729 0.997622
upperback 0.306922 1.72133 0.621864
thorax -5.67251 0.829138 -0.176438
lowerneck -14.559 -3.99979 -4.70635
upperneck 25.3136 -4.80368 1.431
head 10.6963 -2.46854 0.661138
rclavicle 2.12203e-014 3.97569e-016
rhumerus -38.6411 -3.04867 -55.0472
rradius 49.8348
rwrist -1.30486
rhand -8.91327 -12.4155
rfingers 7.12502
rthumb 17.0299 -41.689
lclavicle 2.12203e-014 3.97569e-016
lhumerus -42.9786 14.5065 55.4735
lradius 57.5254
lwrist -8.90739
lhand -13.3261 -0.170261
lfingers 7.12502
lthumb 12.7788 29.4187
rfemur 3.9154 -6.39272 25.9556
rtibia 22.0555
rfoot -13.4435 0.22472
rtoes 23.8973
lfemur -74.7906 -0.0394895 5.16984
ltibia 80.8742
lfoot 29.2104 -8.14194
ltoes 24.7458
1111
root 1.228 18.0251 -4.54629 -8.2257 7.01736 0.57382
lowerback 10.7142 1.14408 0.826846
upperback 0.317036 1.65844 0.558833
thorax -5.67392 0.801957 -0.136835
lowerneck -14.6088 -4.01507 -4.7063
upperneck 25.3324 -4.83846 1.48665
head 10.7156 -2.47733 0.675142
rclavicle 6.83322e-015 -6.55989e-015
rhumerus -38.8513 -3.06068 -55.0992
rradius 49.9661
rwrist -1.37297
rhand -8.78727 -12.3112
rfingers 7.12502
rthumb 17.1512 -41.5742
lclavicle 6.83322e-015 -6.55989e-015
lhumerus -42.752 14.3727 55.5896
lradius 57.5451
lwrist -8.97957
lhand -13.1714 -0.267696
lfingers 7.12502
lthumb 12.9279 29.3118
rfemur 4.12898 -6.35206 25.8593
rtibia 21.6537
rfoot -13.2533 0.0623772
rtoes 23.9809
lfemur -74.5518 -0.475571 5.76065
ltibia 79.1362
lfoot 26.8737 -6.7311
ltoes 25.1632
1112
root 1.22169 18.0373 -4.54298 -8.22468 7.25591 0.676402
lowerback 10.737 1.10921 0.668313
upperback 0.331428 1.58906 0.496669
thorax -5.67451 0.771277 -0.102279
lowerneck -14.6535 -4.04232 -4.71825
upperneck 25.3428 -4.89075 1.55526
head 10.7322 -2.49367 0.6935
rclavicle 3.34579e-014 -1.86858e-014
rhumerus -39.0962 -3.08897 -55.1384
rradius 50.0967
rwrist -1.43839
rhand -8.67593 -12.2023
rfingers 7.12502
rthumb 17.2584 -41.456
lclavicle 3.34579e-014 -1.86858e-014
lhumerus -42.4879 14.2444 55.7297
lradius 57.577
lwrist -9.06339
lhand -13.0223 -0.387542
lfingers 7.12502
lthumb 13.0717 29.1828
rfemur 4.3588 -6.31734 25.7772
rtibia 21.2316
rfoot -13.0563 -0.142314
rtoes 24.0619
lfemur -74.3198 -0.941008 6.32242
ltibia 77.2601
lfoot 24.7603 -5.48285
ltoes 25.331
1113
root 1.21513 18.0494 -4.5397 -8.23149 7.54232 0.764661
lowerback 10.7661 1.06916 0.524604
upperback 0.350191 1.51479 0.437615
thorax -5.67348 0.737843 -0.0720833
lowerneck -14.691 -4.08157 -4.74327
upperneck 25.3444 -4.96051 1.63747
head 10.7456 -2.51759 0.716651
rclavicle 1.67103e-014 1.33186e-014
rhumerus -39.3737 -3.13374 -55.163
rradius 50.223
rwrist -1.49743
rhand -8.58218 -12.0909
rfingers 7.12502
rthumb 17.3486 -41.3367
lclavicle 1.67103e-014 1.33186e-014
lhumerus -42.1905 14.1191 55.8964
lradius 57.6263
lwrist -9.15521
lhand -12.8837 -0.521994
lfingers 7.12502
lthumb 13.2053 29.0398
rfemur 4.60351 -6.28781 25.7135
rtibia 20.7931
rfoot -12.855 -0.389413
rtoes 24.1317
lfemur -74.0956 -1.43325 6.86279
ltibia 75.2548
lfoot 22.9058 -4.48335
ltoes 25.2096
1114
root 1.20849 18.0609 -4.5363 -8.2454 7.87288 0.835719
lowerback 10.7981 1.02511 0.39737
upperback 0.373087 1.43748 0.38376
thorax -5.66931 0.702554 -0.0452085
lowerneck -14.7194 -4.1328 -4.78201
upperneck 25.3366 -5.04762 1.73332
head 10.7554 -2.54911 0.744759
rclavicle 1.35422e-014 -1.2921e-014
rhumerus -39.6802 -3.19473 -55.1712
rradius 50.34
rwrist -1.54482
rhand -8.5065 -11.9806
rfingers 7.12502
rthumb 17.4214 -41.2199
lclavicle 1.35422e-014 -1.2921e-014
lhumerus -41.8651 13.9924 56.0924
lradius 57.6984
lwrist -9.24864
lhand -12.7621 -0.662304
lfingers 7.12502
lthumb 13.3225 28.8918
rfemur 4.85941 -6.26342 25.6713
rtibia 20.345
rfoot -12.6536 -0.677171
rtoes 24.1846
lfemur -73.8813 -1.94689 7.38626
ltibia 73.1328
lfoot 21.3206 -3.81228
ltoes 24.7649
